<?xml version="1.0" encoding="UTF-8"?>
<svg xmlns="http://www.w3.org/2000/svg" xmlns:xlink="http://www.w3.org/1999/xlink" width="20px" height="20px" viewBox="0 0 20 20" version="1.1">
<g id="surface1">
<path style=" stroke:none;fill-rule:nonzero;fill:rgb(100%,100%,100%);fill-opacity:1;" d="M 20.003906 12.164062 L 20.003906 19.5625 L 15.71875 19.5625 L 15.71875 12.660156 C 15.71875 10.925781 15.097656 9.742188 13.546875 9.742188 C 12.359375 9.742188 11.65625 10.539062 11.34375 11.3125 C 11.230469 11.589844 11.203125 11.972656 11.203125 12.355469 L 11.203125 19.5625 L 6.914062 19.5625 C 6.914062 19.5625 6.972656 7.875 6.914062 6.664062 L 11.203125 6.664062 L 11.203125 8.492188 C 11.195312 8.503906 11.183594 8.519531 11.175781 8.53125 L 11.203125 8.53125 L 11.203125 8.492188 C 11.773438 7.613281 12.789062 6.359375 15.066406 6.359375 C 17.890625 6.359375 20.003906 8.203125 20.003906 12.164062 Z M 2.425781 0.445312 C 0.960938 0.445312 0 1.40625 0 2.671875 C 0 3.910156 0.933594 4.902344 2.371094 4.902344 L 2.398438 4.902344 C 3.894531 4.902344 4.824219 3.910156 4.824219 2.671875 C 4.796875 1.40625 3.894531 0.445312 2.425781 0.445312 Z M 0.253906 19.5625 L 4.542969 19.5625 L 4.542969 6.664062 L 0.253906 6.664062 Z M 0.253906 19.5625 "/>
</g>
</svg>
